<?xml version="1.0" encoding="UTF-8" standalone="no"?>
<!-- Created with Inkscape (http://www.inkscape.org/) -->

<svg
   xmlns:dc="http://purl.org/dc/elements/1.1/"
   xmlns:cc="http://creativecommons.org/ns#"
   xmlns:rdf="http://www.w3.org/1999/02/22-rdf-syntax-ns#"
   xmlns:svg="http://www.w3.org/2000/svg"
   xmlns="http://www.w3.org/2000/svg"
   xmlns:sodipodi="http://sodipodi.sourceforge.net/DTD/sodipodi-0.dtd"
   xmlns:inkscape="http://www.inkscape.org/namespaces/inkscape"
   width="154.56731mm"
   height="120.78666mm"
   viewBox="0 0 154.56731 120.78666"
   version="1.1"
   id="svg1136"
   inkscape:version="0.92.2 (5c3e80d, 2017-08-06)"
   sodipodi:docname="rectangledeformation.svg">
  <defs
     id="defs1130">
    <marker
       inkscape:stockid="Arrow2Send"
       orient="auto"
       refY="0"
       refX="0"
       id="marker6433"
       style="overflow:visible"
       inkscape:isstock="true">
      <path
         id="path6431"
         style="fill:#000000;fill-opacity:1;fill-rule:evenodd;stroke:#000000;stroke-width:0.625;stroke-linejoin:round;stroke-opacity:1"
         d="M 8.7185878,4.0337352 -2.2072895,0.01601326 8.7185884,-4.0017078 c -1.7454984,2.3720609 -1.7354408,5.6174519 -6e-7,8.035443 z"
         transform="matrix(-0.3,0,0,-0.3,0.69,0)"
         inkscape:connector-curvature="0" />
    </marker>
    <marker
       inkscape:stockid="Arrow2Mend"
       orient="auto"
       refY="0"
       refX="0"
       id="Arrow2Mend"
       style="overflow:visible"
       inkscape:isstock="true">
      <path
         id="path846"
         style="fill:#000000;fill-opacity:1;fill-rule:evenodd;stroke:#000000;stroke-width:0.625;stroke-linejoin:round;stroke-opacity:1"
         d="M 8.7185878,4.0337352 -2.2072895,0.01601326 8.7185884,-4.0017078 c -1.7454984,2.3720609 -1.7354408,5.6174519 -6e-7,8.035443 z"
         transform="scale(-0.6)"
         inkscape:connector-curvature="0" />
    </marker>
    <marker
       inkscape:stockid="Arrow1Mend"
       orient="auto"
       refY="0"
       refX="0"
       id="Arrow1Mend"
       style="overflow:visible"
       inkscape:isstock="true">
      <path
         id="path828"
         d="M 0,0 5,-5 -12.5,0 5,5 Z"
         style="fill:#000000;fill-opacity:1;fill-rule:evenodd;stroke:#000000;stroke-width:1.00000003pt;stroke-opacity:1"
         transform="matrix(-0.4,0,0,-0.4,-4,0)"
         inkscape:connector-curvature="0" />
    </marker>
    <marker
       inkscape:isstock="true"
       style="overflow:visible"
       id="marker5623"
       refX="0"
       refY="0"
       orient="auto"
       inkscape:stockid="DotM">
      <path
         transform="matrix(0.4,0,0,0.4,2.96,0.4)"
         style="fill:#000000;fill-opacity:1;fill-rule:evenodd;stroke:#000000;stroke-width:1.00000003pt;stroke-opacity:1"
         d="m -2.5,-1 c 0,2.76 -2.24,5 -5,5 -2.76,0 -5,-2.24 -5,-5 0,-2.76 2.24,-5 5,-5 2.76,0 5,2.24 5,5 z"
         id="path5621"
         inkscape:connector-curvature="0" />
    </marker>
    <marker
       inkscape:stockid="DotM"
       orient="auto"
       refY="0"
       refX="0"
       id="DotM"
       style="overflow:visible"
       inkscape:isstock="true"
       inkscape:collect="always">
      <path
         id="path883"
         d="m -2.5,-1 c 0,2.76 -2.24,5 -5,5 -2.76,0 -5,-2.24 -5,-5 0,-2.76 2.24,-5 5,-5 2.76,0 5,2.24 5,5 z"
         style="fill:#000000;fill-opacity:1;fill-rule:evenodd;stroke:#000000;stroke-width:1.00000003pt;stroke-opacity:1"
         transform="matrix(0.4,0,0,0.4,2.96,0.4)"
         inkscape:connector-curvature="0" />
    </marker>
    <marker
       inkscape:stockid="DotL"
       orient="auto"
       refY="0"
       refX="0"
       id="DotL"
       style="overflow:visible"
       inkscape:isstock="true">
      <path
         id="path880"
         d="m -2.5,-1 c 0,2.76 -2.24,5 -5,5 -2.76,0 -5,-2.24 -5,-5 0,-2.76 2.24,-5 5,-5 2.76,0 5,2.24 5,5 z"
         style="fill:#000000;fill-opacity:1;fill-rule:evenodd;stroke:#000000;stroke-width:1.00000003pt;stroke-opacity:1"
         transform="matrix(0.8,0,0,0.8,5.92,0.8)"
         inkscape:connector-curvature="0" />
    </marker>
    <marker
       inkscape:isstock="true"
       style="overflow:visible"
       id="marker5495"
       refX="0"
       refY="0"
       orient="auto"
       inkscape:stockid="DotS">
      <path
         transform="matrix(0.2,0,0,0.2,1.48,0.2)"
         style="fill:#000000;fill-opacity:1;fill-rule:evenodd;stroke:#000000;stroke-width:1.00000003pt;stroke-opacity:1"
         d="m -2.5,-1 c 0,2.76 -2.24,5 -5,5 -2.76,0 -5,-2.24 -5,-5 0,-2.76 2.24,-5 5,-5 2.76,0 5,2.24 5,5 z"
         id="path5493"
         inkscape:connector-curvature="0" />
    </marker>
    <marker
       inkscape:stockid="DotS"
       orient="auto"
       refY="0"
       refX="0"
       id="DotS"
       style="overflow:visible"
       inkscape:isstock="true"
       inkscape:collect="always">
      <path
         id="path886"
         d="m -2.5,-1 c 0,2.76 -2.24,5 -5,5 -2.76,0 -5,-2.24 -5,-5 0,-2.76 2.24,-5 5,-5 2.76,0 5,2.24 5,5 z"
         style="fill:#000000;fill-opacity:1;fill-rule:evenodd;stroke:#000000;stroke-width:1.00000003pt;stroke-opacity:1"
         transform="matrix(0.2,0,0,0.2,1.48,0.2)"
         inkscape:connector-curvature="0" />
    </marker>
  </defs>
  <sodipodi:namedview
     id="base"
     pagecolor="#ffffff"
     bordercolor="#666666"
     borderopacity="1.0"
     inkscape:pageopacity="0.0"
     inkscape:pageshadow="2"
     inkscape:zoom="2.8"
     inkscape:cx="130.79817"
     inkscape:cy="389.23982"
     inkscape:document-units="mm"
     inkscape:current-layer="layer1"
     showgrid="false"
     inkscape:window-width="1280"
     inkscape:window-height="751"
     inkscape:window-x="0"
     inkscape:window-y="23"
     inkscape:window-maximized="0" />
  <metadata
     id="metadata1133">
    <rdf:RDF>
      <cc:Work
         rdf:about="">
        <dc:format>image/svg+xml</dc:format>
        <dc:type
           rdf:resource="http://purl.org/dc/dcmitype/StillImage" />
        <dc:title></dc:title>
      </cc:Work>
    </rdf:RDF>
  </metadata>
  <g
     inkscape:label="Layer 1"
     inkscape:groupmode="layer"
     id="layer1"
     transform="translate(-20.761509,-15.672705)">
    <ellipse
       style="fill:none;fill-opacity:1;stroke:#000000;stroke-width:0.78050178;stroke-miterlimit:4;stroke-dasharray:none;stroke-dashoffset:0;stroke-opacity:1"
       id="path5372"
       cx="54.255711"
       cy="34.006783"
       rx="33.103951"
       ry="17.602314" />
    <rect
       style="fill:none;fill-opacity:1;stroke:#808080;stroke-width:0.70070505;stroke-miterlimit:4;stroke-dasharray:none;stroke-dashoffset:0;stroke-opacity:1"
       id="rect5376"
       width="57.477047"
       height="17.847799"
       x="25.517193"
       y="25.082886"
       inkscape:label="rect5376" />
    <path
       style="fill:none;stroke:#000000;stroke-width:0.35277778;stroke-linecap:butt;stroke-linejoin:miter;stroke-miterlimit:4;stroke-dasharray:none;stroke-opacity:1"
       d="m 96.21703,34.274053 h 79.11178"
       id="path5389"
       inkscape:connector-curvature="0" />
    <path
       inkscape:connector-curvature="0"
       id="path5461"
       d="m 96.21703,118.99849 h 79.11178"
       style="fill:none;stroke:#000000;stroke-width:0.35277778;stroke-linecap:butt;stroke-linejoin:miter;stroke-miterlimit:4;stroke-dasharray:none;stroke-opacity:1;marker-start:url(#DotS)" />
    <path
       style="fill:none;stroke:#000000;stroke-width:0.26458332px;stroke-linecap:butt;stroke-linejoin:miter;stroke-opacity:1;marker-start:url(#DotM);marker-end:url(#DotM)"
       d="m 121.07309,34.25784 c 0.0668,5.345391 -6.05544,44.838353 0.17239,45.718564 6.70794,0.948068 5.40089,-27.619385 10.56162,-27.713217 5.51243,-0.100226 11.29484,41.533356 16.49164,41.256142 5.39162,-0.287606 -2.23229,-43.367381 -2.07028,-59.203718"
       id="path5483"
       inkscape:connector-curvature="0"
       sodipodi:nodetypes="csssc" />
    <rect
       inkscape:label="rect5376"
       y="-59.60194"
       x="16.550629"
       height="10.692445"
       width="34.912319"
       id="rect6744"
       style="fill:none;fill-opacity:1;stroke:#808080;stroke-width:0.70555556;stroke-miterlimit:4;stroke-dasharray:none;stroke-dashoffset:0;stroke-opacity:1"
       transform="rotate(90)" />
    <text
       xml:space="preserve"
       style="font-style:italic;font-variant:normal;font-weight:bold;font-stretch:normal;font-size:10.58333302px;line-height:1.25;font-family:Palatino;-inkscape-font-specification:'Palatino Bold Italic';letter-spacing:0px;word-spacing:0px;fill:#000000;fill-opacity:1;stroke:none;stroke-width:0.26458332"
       x="52.511509"
       y="77.468529"
       id="text6882"><tspan
         sodipodi:role="line"
         id="tspan6880"
         x="52.511509"
         y="77.468529"
         style="stroke-width:0.26458332">?</tspan></text>
    <path
       style="fill:none;stroke:#000000;stroke-width:0.70555556;stroke-linecap:butt;stroke-linejoin:miter;stroke-miterlimit:4;stroke-dasharray:none;stroke-opacity:1"
       d="m 33.362045,119.80865 c 0,0 16.512845,-14.9786 34.222273,-19.32723 17.709426,-4.348634 17.470111,-2.657497 17.948744,7.73089 0.478633,10.38839 -1.196584,9.66361 -11.487198,9.66361 -10.290611,0 -26.56414,0 -12.683778,5.55658 13.880361,5.55659 16.512843,16.42815 4.547015,11.35475 -11.965831,-5.0734 -14.119679,-6.52294 -14.119679,-16.42814 0,-9.90521 2.632481,-8.93885 -3.829065,-5.0734 -6.461548,3.86545 -1.675216,7.00611 -6.461548,15.22019 -4.786332,8.21407 -6.461548,1.44955 -10.051297,-0.72476 -3.589749,-2.17433 1.914533,-7.97249 1.914533,-7.97249 z"
       id="path6884"
       inkscape:connector-curvature="0" />
    <path
       style="fill:none;stroke:#000000;stroke-width:1.05833328;stroke-linecap:butt;stroke-linejoin:miter;stroke-miterlimit:4;stroke-dasharray:none;stroke-opacity:1;marker-end:url(#marker6433)"
       d="m 39.660318,61.782517 c 0,0 -4.724702,12.473215 6.047619,30.049107"
       id="path6886"
       inkscape:connector-curvature="0" />
    <path
       style="fill:none;stroke:#000000;stroke-width:0.26458332px;stroke-linecap:butt;stroke-linejoin:miter;stroke-opacity:1"
       d="m 132.0755,67.45216 c 7.37053,-0.566964 5.48065,32.127978 16.81994,32.127978 11.33928,0 0.18898,-38.553574 10.77232,-38.553574 10.58333,0 4.7247,47.813986 -9.44941,47.813986 -17.76488,0 -25.7091,-41.185463 -18.14285,-41.38839 z"
       id="path11100"
       inkscape:connector-curvature="0"
       sodipodi:nodetypes="csssc" />
    <circle
       style="fill:#ff0000;fill-opacity:1;stroke:none;stroke-width:0.30758658;stroke-miterlimit:4;stroke-dasharray:none;stroke-dashoffset:0;stroke-opacity:1"
       id="path5381"
       cx="25.517193"
       cy="25.082886"
       r="0.87792331" />
    <circle
       r="0.87792331"
       cy="42.930687"
       cx="25.517193"
       id="circle11825"
       style="fill:#ff0000;fill-opacity:1;stroke:none;stroke-width:0.30758658;stroke-miterlimit:4;stroke-dasharray:none;stroke-dashoffset:0;stroke-opacity:1" />
    <circle
       style="fill:#ff0000;fill-opacity:1;stroke:none;stroke-width:0.30758658;stroke-miterlimit:4;stroke-dasharray:none;stroke-dashoffset:0;stroke-opacity:1"
       id="circle11827"
       cx="82.99424"
       cy="42.930687"
       r="0.87792331" />
    <circle
       r="0.87792331"
       cy="25.082886"
       cx="82.99424"
       id="circle11829"
       style="fill:#ff0000;fill-opacity:1;stroke:none;stroke-width:0.30758658;stroke-miterlimit:4;stroke-dasharray:none;stroke-dashoffset:0;stroke-opacity:1" />
    <circle
       style="fill:#ff0000;fill-opacity:1;stroke:none;stroke-width:0.30758658;stroke-miterlimit:4;stroke-dasharray:none;stroke-dashoffset:0;stroke-opacity:1"
       id="circle11831"
       cx="59.60194"
       cy="16.550629"
       r="0.87792331" />
    <circle
       r="0.87792331"
       cy="16.550629"
       cx="48.909496"
       id="circle11833"
       style="fill:#ff0000;fill-opacity:1;stroke:none;stroke-width:0.30758658;stroke-miterlimit:4;stroke-dasharray:none;stroke-dashoffset:0;stroke-opacity:1" />
    <circle
       style="fill:#ff0000;fill-opacity:1;stroke:none;stroke-width:0.30758658;stroke-miterlimit:4;stroke-dasharray:none;stroke-dashoffset:0;stroke-opacity:1"
       id="circle11835"
       cx="48.909496"
       cy="51.462948"
       r="0.87792331" />
    <circle
       r="0.87792331"
       cy="51.462948"
       cx="59.60194"
       id="circle11837"
       style="fill:#ff0000;fill-opacity:1;stroke:none;stroke-width:0.30758658;stroke-miterlimit:4;stroke-dasharray:none;stroke-dashoffset:0;stroke-opacity:1" />
  </g>
</svg>
